<svg xmlns="http://www.w3.org/2000/svg" width="75" height="72" fill="none" viewBox="0 0 75 72"><path fill="#83b3d3" d="M71 48H5q-3 1-4 4v4q1 4 4 4h1v1q1 9 10 10h44q10 0 10-10v-1h1q4-1 4-4v-4q0-3-4-4m-4 13q0 7-7 7H16q-6 0-7-7v-1h58zm5-5zH5l-1-1v-4l1-1h66l1 1zM17 39l5 5 5-5 6 5 5-5 5 5 6-5 5 5 5-5 6 5 6-5-2-3-4 4-6-4-5 4-5-4-6 4-5-4-5 4-6-4-5 4-5-4-6 4-4-4-2 3 6 5zM9 33h61v-4C69 14 55 1 38 1S7 14 6 30v3zM38 4c16 0 29 11 29 26H9Q12 6 38 4"/><path fill="#83b3d3" d="m38 18 2-2-2-2-2 2zM30 13l2-2-2-2-2 2zM46 13l2-2-2-2-2 2z"/></svg>